# xmcd
#
# Track frame offsets: 
#        150
#        22585
#        45412
#        62244
#        80472
#        104090
#        119371
#        143522
#        160288
#        176788
#        204106
#        217625
#        235837
#        257270
#
# Disc length: 3692 seconds
#
# Revision: 0
# Processed by: cddbd v1.5.2PL0 Copyright (c) Steve Scherf et al.
# Submitted via: ExactAudioCopyFreeDBPlugin 1.0
#
DISCID=ab0e6a0e
DTITLE=Don Cassell - Music Pals 2
DYEAR=1900
DGENRE=Bluegrass
TTITLE0=Homestretch
TTITLE1=Dimming Of The Day
TTITLE2=Tonight I'll Be Staying Here with You
TTITLE3=Wild Bill Jones
TTITLE4=On A Hillside
TTITLE5=Drink Up and Go Home
TTITLE6=Can't Find My Way Home
TTITLE7=Friar Tut
TTITLE8=Tall Pines
TTITLE9=Blues Stay Away From Me
TTITLE10=He's Holding On To Me
TTITLE11=Big D
TTITLE12=South Coast of Texas
TTITLE13=Years From Now
EXTD=
EXTT0=
EXTT1=
EXTT2=
EXTT3=
EXTT4=
EXTT5=
EXTT6=
EXTT7=
EXTT8=
EXTT9=
EXTT10=
EXTT11=
EXTT12=
EXTT13=
PLAYORDER=
